HIERARCHY
ROOT Hips
{
	OFFSET 0.000000 0.000000 0.000000 
	CHANNELS 6 Xposition Yposition Zposition Zrotation Yrotation Xrotation
	JOINT LeftUpLeg
	{
		OFFSET 1.363060 -1.794630 0.839290 
		CHANNELS 3 Zrotation Yrotation Xrotation
		JOINT LeftLeg
		{
			OFFSET 2.448110 -6.726130 0.000000 
			CHANNELS 3 Zrotation Yrotation Xrotation
			JOINT LeftFoot
			{
				OFFSET 2.562200 -7.039590 0.000000 
				CHANNELS 3 Zrotation Yrotation Xrotation
				JOINT LeftToeBase
				{
					OFFSET 0.157640 -0.433110 2.322550 
					CHANNELS 3 Zrotation Yrotation Xrotation
					End Site
					{
						OFFSET 0.000000 0.000000 0.000000 
					}
				}
			}
		}
	}
	JOINT RightUpLeg
	{
		OFFSET -1.305520 -1.794630 0.839290 
		CHANNELS 3 Zrotation Yrotation Xrotation
		JOINT RightLeg
		{
			OFFSET -2.542530 -6.985550 0.000000 
			CHANNELS 3 Zrotation Yrotation Xrotation
			JOINT RightFoot
			{
				OFFSET -2.568260 -7.056230 0.000000 
				CHANNELS 3 Zrotation Yrotation Xrotation
				JOINT RightToeBase
				{
					OFFSET -0.164730 -0.452590 2.363150 
					CHANNELS 3 Zrotation Yrotation Xrotation
					End Site
					{
						OFFSET 0.000000 0.000000 0.000000 
					}
				}
			}
		}
	}
	JOINT Spine
	{
		OFFSET 0.028270 2.035590 -0.193380 
		CHANNELS 3 Zrotation Yrotation Xrotation
		JOINT Spine1
		{
			OFFSET 0.056720 2.048850 -0.042750 
			CHANNELS 3 Zrotation Yrotation Xrotation
			JOINT Neck1
			{
				OFFSET -0.054170 1.746240 0.172020 
				CHANNELS 3 Zrotation Yrotation Xrotation
				JOINT Head
				{
					OFFSET 0.104070 1.761360 -0.123970 
					CHANNELS 3 Zrotation Yrotation Xrotation
					End Site
					{
						OFFSET 0.000000 0.000000 0.000000 
					}
				}
			}
			JOINT LeftArm
			{
				OFFSET 3.362410 1.200890 -0.311210 
				CHANNELS 3 Zrotation Yrotation Xrotation
				JOINT LeftForeArm
				{
					OFFSET 4.983000 -0.000000 -0.000000 
					CHANNELS 3 Zrotation Yrotation Xrotation
					JOINT LeftHand
					{
						OFFSET 3.483560 -0.000000 -0.000000 
						CHANNELS 3 Zrotation Yrotation Xrotation
						JOINT LeftHandIndex1
						{
							OFFSET 0.715260 -0.000000 -0.000000 
							CHANNELS 3 Zrotation Yrotation Xrotation
							End Site
							{
								OFFSET 0.000000 0.000000 0.000000 
							}
						}
					}
				}
			}
			JOINT RightArm
			{
				OFFSET -3.136600 1.374050 -0.404650 
				CHANNELS 3 Zrotation Yrotation Xrotation
				JOINT RightForeArm
				{
					OFFSET -5.241900 -0.000000 -0.000000 
					CHANNELS 3 Zrotation Yrotation Xrotation
					JOINT RightHand
					{
						OFFSET -3.444170 -0.000000 -0.000000 
						CHANNELS 3 Zrotation Yrotation Xrotation
						JOINT RightHandIndex1
						{
							OFFSET -0.622530 -0.000000 -0.000000 
							CHANNELS 3 Zrotation Yrotation Xrotation
							End Site
							{
								OFFSET 0.000000 0.000000 0.000000 
							}
						}
					}
				}
			}
		}
	}
}
MOTION
Frames: 15
Frame Time: 0.041667
-0.249863 17.943386 -1.190444 -7.522251 8.411299 -0.562279 -0.923652 -4.866305 -26.882352 1.826316 10.371377 28.543699 -2.289798 11.062411 4.468825 0.980600 -6.303400 -17.667200 30.883685 -6.779487 1.216040 0.086106 -5.064613 12.266324 3.554757 -17.293627 -3.975716 -0.033800 1.187300 -3.264300 2.769677 3.651619 -0.726833 -2.007891 1.772783 -2.218047 1.442079 -2.562997 16.440766 -2.818800 -0.647900 9.653300 -87.312330 14.126545 27.897287 24.761276 -35.290290 -7.195603 0.249498 0.520015 -14.902076 -7.125000 0.000000 0.000000 88.097855 -3.119017 17.621662 -21.344837 32.226130 -5.821218 0.092944 -0.672091 -8.832425 7.125000 0.000000 0.000000 
-0.246791 17.943386 -1.153673 -7.627154 8.452672 -0.596914 -1.003597 -4.639987 -27.099756 1.702135 10.173655 27.918329 -2.276561 11.031195 4.603616 0.978100 -6.295500 -17.644300 31.006908 -6.856692 1.532807 0.112371 -4.931930 11.885350 3.574347 -17.395569 -3.819974 -0.035500 1.216800 -3.345500 2.797905 3.721448 -0.732925 -2.016291 1.807731 -2.218644 1.475322 -2.625045 16.432730 -2.806600 -0.675700 9.642900 -87.320112 14.248411 27.762146 24.679958 -35.199027 -7.149665 0.249363 0.518886 -14.824940 -7.125000 0.000000 0.000000 88.162856 -2.921668 17.260544 -21.311477 32.194663 -5.810245 0.090912 -0.672635 -8.829351 7.125000 0.000000 0.000000 
-0.243223 17.943188 -1.116506 -7.721794 8.487371 -0.624426 -1.093555 -4.429209 -27.304632 1.584179 9.982674 27.317909 -2.272819 11.022577 4.667598 0.972200 -6.277100 -17.590500 31.115034 -6.940012 1.857629 0.139509 -4.791036 11.482266 3.590464 -17.485922 -3.655258 -0.037000 1.240800 -3.411700 2.821504 3.791919 -0.751163 -2.025936 1.842583 -2.231468 1.525059 -2.696565 16.419532 -2.785700 -0.707700 9.624900 -87.327343 14.388787 27.631849 24.597922 -35.106587 -7.103707 0.249413 0.518472 -14.775481 -7.125000 0.000000 0.000000 88.226069 -2.750592 16.917884 -21.281496 32.166755 -5.800887 0.088805 -0.673312 -8.865592 7.125000 0.000000 0.000000 
-0.238862 17.943089 -1.078348 -7.811789 8.496851 -0.649669 -1.180794 -4.236566 -27.480216 1.471332 9.795671 26.731134 -2.283478 11.060361 4.695587 0.960300 -6.239700 -17.481500 31.211171 -7.023672 2.204080 0.167552 -4.641060 11.053898 3.601749 -17.560966 -3.471686 -0.038400 1.264700 -3.477400 2.844227 3.863354 -0.762377 -2.033500 1.878437 -2.228609 1.563118 -2.744686 16.412609 -2.770100 -0.728500 9.613200 -87.342276 14.529738 27.490901 24.524730 -35.023931 -7.062790 0.249256 0.519085 -14.758561 -7.125000 0.000000 0.000000 88.279070 -2.574924 16.607231 -21.247240 32.133433 -5.788955 0.086304 -0.673608 -8.928161 7.125000 0.000000 0.000000 
-0.233708 17.943089 -1.039892 -7.893297 8.500220 -0.667098 -1.262613 -4.088326 -27.625962 1.361572 9.609437 26.147093 -2.310013 11.152570 4.701571 0.951200 -6.211000 -17.397700 31.292148 -7.118346 2.559646 0.196419 -4.480525 10.596518 3.608772 -17.622148 -3.269216 -0.039900 1.290000 -3.547000 2.866027 3.930393 -0.778635 -2.036301 1.911843 -2.231505 1.603497 -2.787040 16.411573 -2.751600 -0.746900 9.606200 -87.370172 14.674467 27.335630 24.456348 -34.946827 -7.024676 0.248767 0.520765 -14.751442 -7.125000 0.000000 0.000000 88.325328 -2.405235 16.319081 -21.211259 32.097733 -5.775992 0.083964 -0.673752 -8.992997 7.125000 0.000000 0.000000 
-0.228059 17.943386 -1.000445 -7.962783 8.503650 -0.682640 -1.337955 -4.002517 -27.725785 1.253592 9.423080 25.562439 -2.350167 11.289226 4.678634 0.944700 -6.190300 -17.337600 31.352596 -7.234885 2.928363 0.225810 -4.309812 10.111264 3.610566 -17.666758 -3.048695 -0.041800 1.320300 -3.630400 2.882757 3.990773 -0.793561 -2.037170 1.942037 -2.229400 1.639280 -2.823262 16.424521 -2.736400 -0.761200 9.605400 -87.390661 14.827824 27.193760 24.403896 -34.886365 -6.994972 0.247725 0.523178 -14.757331 -7.125000 0.000000 0.000000 88.373058 -2.234459 16.043048 -21.168476 32.054012 -5.758870 0.081665 -0.673440 -9.038977 7.125000 0.000000 0.000000 
-0.221616 17.943981 -0.960502 -8.024157 8.505067 -0.693888 -1.396984 -3.990244 -27.778869 1.146850 9.235560 24.974751 -2.403532 11.466921 4.619089 0.942300 -6.182600 -17.315200 31.396326 -7.369094 3.303088 0.254996 -4.130757 9.603675 3.607344 -17.695567 -2.808518 -0.044400 1.360400 -3.741000 2.893445 4.051056 -0.804321 -2.041160 1.972738 -2.217097 1.645718 -2.846213 16.430174 -2.737300 -0.769600 9.604100 -87.405367 14.976056 27.061612 24.356980 -34.831668 -6.968316 0.246763 0.525080 -14.769769 -7.125000 0.000000 0.000000 88.423567 -2.066949 15.779872 -21.130905 32.015762 -5.743813 0.079908 -0.673023 -9.058923 7.125000 0.000000 0.000000 
-0.215174 17.944774 -0.920659 -8.085690 8.504397 -0.691652 -1.427655 -4.053369 -27.798489 1.042336 9.046720 24.383869 -2.472539 11.694448 4.528988 0.946400 -6.195800 -17.353700 31.436014 -7.533893 3.658641 0.283506 -3.945890 9.082411 3.592375 -17.681860 -2.549983 -0.047100 1.400500 -3.851400 2.900810 4.116673 -0.817123 -2.046984 2.006100 -2.203284 1.641073 -2.873825 16.442963 -2.746400 -0.779400 9.608100 -87.412570 15.101889 26.942458 24.295657 -34.761299 -6.934112 0.246668 0.525495 -14.776863 -7.125000 0.000000 0.000000 88.481255 -1.885853 15.511666 -21.082912 31.965807 -5.723303 0.078004 -0.672271 -9.046217 7.125000 0.000000 0.000000 
-0.208335 17.945864 -0.880617 -8.139401 8.502634 -0.680729 -1.443414 -4.179047 -27.787553 0.940461 8.858939 23.797432 -2.553735 11.958169 4.400550 0.953300 -6.217600 -17.417200 31.461321 -7.694094 4.014359 0.310784 -3.757721 8.552812 3.575776 -17.663985 -2.286296 -0.049900 1.441500 -3.964500 2.902230 4.183639 -0.836470 -2.055664 2.039876 -2.189678 1.652351 -2.915416 16.454555 -2.749100 -0.794300 9.605600 -87.413306 15.237147 26.831405 24.230526 -34.686119 -6.897894 0.247171 0.524901 -14.780444 -7.125000 0.000000 0.000000 88.539719 -1.727428 15.267496 -21.041530 31.923087 -5.705498 0.076709 -0.671557 -9.011716 7.125000 0.000000 0.000000 
-0.201001 17.946756 -0.840477 -8.188002 8.491271 -0.659579 -1.445793 -4.348041 -27.758155 0.843013 8.674737 23.223192 -2.647806 12.260398 4.237629 0.960900 -6.241700 -17.487200 31.476669 -7.840700 4.370650 0.336841 -3.567027 8.017239 3.557255 -17.640058 -2.021455 -0.052600 1.479900 -4.070400 2.901484 4.255964 -0.854844 -2.064038 2.076408 -2.171845 1.659613 -2.957256 16.460768 -2.754600 -0.809600 9.602000 -87.410891 15.370878 26.735087 24.172452 -34.618395 -6.865464 0.247863 0.523824 -14.786814 -7.125000 0.000000 0.000000 88.588155 -1.560786 15.051553 -20.995475 31.874370 -5.685186 0.075677 -0.670771 -8.978311 7.125000 0.000000 0.000000 
-0.193270 17.947351 -0.799940 -8.239880 8.482571 -0.627563 -1.433907 -4.548866 -27.720705 0.750706 8.495898 22.669114 -2.749485 12.579881 4.030190 0.967100 -6.261100 -17.543800 31.492300 -7.983036 4.720608 0.361320 -3.374850 7.479415 3.536173 -17.607139 -1.764132 -0.054800 1.510800 -4.155500 2.901573 4.326718 -0.875098 -2.072843 2.112972 -2.149362 1.635487 -2.990798 16.429157 -2.775800 -0.823900 9.579200 -87.412536 15.505528 26.637906 24.122906 -34.560086 -6.837745 0.248317 0.523083 -14.788095 -7.125000 0.000000 0.000000 88.627326 -1.395239 14.869913 -20.948617 31.824338 -5.664203 0.074986 -0.670182 -8.955932 7.125000 0.000000 0.000000 
-0.184945 17.947450 -0.758510 -8.301474 8.457782 -0.591436 -1.409311 -4.743404 -27.678850 0.664343 8.324299 22.140834 -2.852386 12.894892 3.782354 0.968000 -6.264000 -17.552300 31.515121 -8.105456 5.075021 0.383675 -3.186253 6.952115 3.514173 -17.570634 -1.518248 -0.056900 1.539200 -4.233700 2.904648 4.402102 -0.902412 -2.084959 2.151737 -2.131578 1.599896 -3.013719 16.370508 -2.801300 -0.835400 9.543000 -87.420090 15.658989 26.532773 24.079971 -34.508707 -6.813495 0.248865 0.521910 -14.779945 -7.125000 0.000000 0.000000 88.655280 -1.249657 14.725622 -20.903072 31.774842 -5.643414 0.074744 -0.669718 -8.942349 7.125000 0.000000 0.000000 
-0.176123 17.946954 -0.716784 -8.370273 8.416312 -0.546389 -1.377063 -4.922693 -27.644089 0.584177 8.161343 21.643792 -2.951822 13.189427 3.498759 0.966700 -6.260100 -17.540800 31.543989 -8.207130 5.424878 0.403917 -3.001765 6.437074 3.491649 -17.532273 -1.278642 -0.059000 1.567100 -4.310700 2.909683 4.483967 -0.929062 -2.099777 2.193736 -2.111247 1.587461 -3.045954 16.282858 -2.814100 -0.853600 9.498200 -87.433545 15.811945 26.424930 24.050329 -34.472002 -6.796312 0.248863 0.521273 -14.771962 -7.125000 0.000000 0.000000 88.677558 -1.108011 14.607999 -20.864439 31.732968 -5.625791 0.074707 -0.669377 -8.945331 7.125000 0.000000 0.000000 
-0.167104 17.945864 -0.674859 -8.432782 8.363451 -0.495823 -1.355742 -5.075390 -27.620050 0.509272 8.007455 21.178344 -3.040818 13.445971 3.205391 0.964700 -6.253700 -17.522300 31.565395 -8.292641 5.762565 0.421434 -2.828479 5.954578 3.469443 -17.492470 -1.059491 -0.060800 1.590700 -4.375800 2.910726 4.566931 -0.966026 -2.116490 2.234903 -2.111530 1.614948 -3.094355 16.228535 -2.806500 -0.877100 9.470500 -87.440175 15.985886 26.326117 24.031820 -34.446602 -6.784757 0.248890 0.520581 -14.761706 -7.125000 0.000000 0.000000 88.704385 -0.982144 14.511712 -20.830650 31.696965 -5.610450 0.074501 -0.668905 -8.945295 7.125000 0.000000 0.000000 
-0.157490 17.944377 -0.632538 -8.491603 8.293204 -0.444512 -1.342733 -5.197793 -27.599189 0.439774 7.862906 20.745052 -3.119169 13.663260 2.899959 0.957600 -6.231300 -17.457000 31.580578 -8.355892 6.087923 0.435891 -2.672673 5.521228 3.448418 -17.452933 -0.865559 -0.062600 1.614200 -4.440700 2.907091 4.655817 -1.005180 -2.139198 2.278876 -2.113650 1.643891 -3.138103 16.171593 -2.798700 -0.898400 9.444600 -87.439906 16.166521 26.234586 24.013051 -34.420600 -6.773058 0.249104 0.519890 -14.749005 -7.125000 0.000000 0.000000 88.738469 -0.883677 14.436885 -20.809443 31.675348 -5.601108 0.074146 -0.668527 -8.944256 7.125000 0.000000 0.000000 
